<svg xmlns="http://www.w3.org/2000/svg" viewBox="0 0 512 512">
  <defs>
    <radialGradient id="bg" cx="0.4" cy="0.35" r="1">
      <stop offset="0" stop-color="#6fd74a"/>
      <stop offset="0.7" stop-color="#3fae4c"/>
      <stop offset="1" stop-color="#2c8a3e"/>
    </radialGradient>
    <linearGradient id="body" x1="0" y1="0" x2="0" y2="1">
      <stop offset="0" stop-color="#ffe9a3"/>
      <stop offset="0.4" stop-color="#ffc53d"/>
      <stop offset="0.8" stop-color="#e8930c"/>
      <stop offset="1" stop-color="#c97a00"/>
    </linearGradient>
    <linearGradient id="leaf" x1="0" y1="1" x2="0" y2="0">
      <stop offset="0" stop-color="#3fae4c"/>
      <stop offset="1" stop-color="#58bb3d"/>
    </linearGradient>
  </defs>
  <circle cx="256" cy="256" r="248" fill="url(#bg)" stroke="#1d6b2e" stroke-width="8"/>
  <circle cx="256" cy="256" r="238" fill="none" stroke="rgba(255,255,255,0.15)" stroke-width="4"/>
  <ellipse cx="256" cy="300" rx="110" ry="124" fill="url(#body)" stroke="#c97a00" stroke-width="5"/>
  <g stroke="rgba(140,90,20,0.35)" stroke-width="3" fill="none">
    <line x1="170" y1="230" x2="342" y2="370"/>
    <line x1="200" y1="195" x2="370" y2="340"/>
    <line x1="240" y1="180" x2="380" y2="300"/>
    <line x1="132" y1="300" x2="300" y2="340"/>
    <line x1="150" y1="340" x2="320" y2="370"/>
    <line x1="340" y1="230" x2="170" y2="370"/>
    <line x1="312" y1="195" x2="140" y2="340"/>
    <line x1="270" y1="180" x2="130" y2="300"/>
    <line x1="380" y1="300" x2="210" y2="340"/>
    <line x1="360" y1="340" x2="190" y2="370"/>
  </g>
  <g fill="#fff" opacity="0.3">
    <circle cx="200" cy="360" r="4"/><circle cx="280" cy="340" r="3.5"/>
    <circle cx="310" cy="380" r="3"/><circle cx="230" cy="200" r="3"/>
  </g>
  <g>
    <path d="M256 176 Q230 140 200 100 Q220 120 256 160Z" fill="url(#leaf)"/>
    <path d="M256 176 Q280 130 310 90 Q290 120 256 160Z" fill="url(#leaf)"/>
    <path d="M256 176 Q240 120 180 80 Q220 115 256 160Z" fill="url(#leaf)"/>
    <path d="M256 176 Q270 110 330 70 Q290 115 256 160Z" fill="url(#leaf)"/>
    <path d="M256 176 Q256 110 256 50 Q256 110 256 176Z" fill="url(#leaf)"/>
  </g>
  <circle cx="230" cy="290" r="18" fill="#fff"/>
  <circle cx="282" cy="290" r="18" fill="#fff"/>
  <circle cx="234" cy="294" r="10" fill="#3a2410"/>
  <circle cx="286" cy="294" r="10" fill="#3a2410"/>
  <circle cx="237" cy="290" r="4" fill="#fff"/>
  <circle cx="289" cy="290" r="4" fill="#fff"/>
  <path d="M226 318 Q256 338 286 318" fill="none" stroke="#3a2410" stroke-width="5" stroke-linecap="round"/>
  <ellipse cx="208" cy="300" rx="12" ry="8" fill="#ff9d5c" opacity="0.5"/>
  <ellipse cx="304" cy="300" rx="12" ry="8" fill="#ff9d5c" opacity="0.5"/>
  <circle cx="80" cy="96" r="40" fill="#fff" opacity="0.08"/>
  <circle cx="432" cy="416" r="30" fill="#fff" opacity="0.06"/>
</svg>
